<svg width="192" height="24" viewBox="0 0 192 24" fill="none" xmlns="http://www.w3.org/2000/svg">
<g clip-path="url(#clip0_1452_2369)">
<path d="M66.3726 16.7412H65.9676C64.9801 20.525 63.5438 22.3263 59.8173 22.3263C55.8674 22.3263 55.1056 21.7418 55.1056 17.3257V11.8296H57.1264C59.8173 11.8296 61.525 12.4141 61.7483 15.6584H62.1092L62.0194 11.289L62.1092 7.36997H61.7483C61.525 10.2976 59.3706 11.0648 56.9905 11.0648H55.106V1.19558H56.5422C58.9223 1.19558 62.377 1.28575 63.8594 3.76291C64.3536 4.72355 64.6864 5.75949 64.8445 6.82897H65.2054C65.1136 5.47728 65.1136 4.21253 65.1136 2.86366L65.2054 0.160278C61.525 0.610708 57.6188 0.522554 53.9384 0.522554L47.7002 0.430777V0.833306C50.1677 0.969763 51.0194 1.28374 51.0194 4.12156V19.4418C51.0194 22.2353 50.124 22.5521 47.7002 22.7321V23.0943C50.0342 23.0042 52.4119 23.0042 54.7459 23.0042C58.3802 23.0042 62.1068 22.9579 65.7872 23.3664L66.0278 20.054L66.3714 16.7436M45.6357 23.0943V22.7357C43.2119 22.5554 42.2676 22.239 42.2676 19.4454V4.12317C42.2676 1.32962 43.1654 0.971373 45.6357 0.834916V0.432388L40.2023 0.520541L34.8634 0.430777V0.833306C37.3747 0.969763 38.1826 1.28374 38.1826 4.12156V10.9283L32.3498 10.9746H27.995V4.12317C27.995 1.32962 28.8927 0.971373 31.3602 0.834916V0.432388L25.9765 0.522554L20.6353 0.430777V0.833306C23.1049 0.969763 23.9569 1.28374 23.9569 4.12156V19.4418C23.9569 22.2353 23.0591 22.5521 20.6353 22.7321V23.0943L25.9777 23.0042L31.3615 23.0943V22.7357C28.9376 22.5554 27.9962 22.239 27.9962 19.4454V11.6492L32.9332 11.6054L38.1834 11.6492V19.4434C38.1834 22.237 37.3755 22.5537 34.8643 22.7337V23.0959L40.2023 23.0042L45.6345 23.0943M19.4212 7.32368L19.3775 2.81777L19.4212 0.204154C18.2447 0.345535 17.0612 0.421059 15.8763 0.430375L11.6137 0.475861H8.20031L3.84747 0.430777C2.67715 0.42357 1.50824 0.347901 0.34668 0.204154L0.39279 2.81777L0.34668 7.32368H0.661835C1.42366 3.58258 2.09608 1.14929 7.03712 1.14929H7.75524L7.84466 7.68394V19.4434C7.84466 21.9226 6.94691 22.5075 4.07241 22.7337V23.0959L9.90961 23.0058L15.6987 23.0959V22.7357C12.8699 22.5095 11.8847 21.9246 11.8847 19.4454V7.68394L11.9746 1.14929H12.7765C17.2648 1.14929 18.3899 3.8088 19.0624 7.32368H19.4192" fill="#6F7F90"/>
<path d="M192.349 0.834839V0.43231L188.175 0.522477L183.284 0.43231V0.834839C186.917 1.01517 187.818 2.41315 187.818 6.28829V14.623C187.818 19.6695 186.156 22.5074 181.265 22.5074C176.73 22.5074 175.52 19.5798 175.52 14.9837V4.07922C175.52 1.32955 176.415 0.971296 178.841 0.834839V0.43231L173.543 0.522477L168.159 0.43231V0.834839C170.583 0.971296 171.479 1.28527 171.479 4.07922V16.2915C171.479 22.0569 176.192 23.4086 180.545 23.4086C185.664 23.4086 188.76 20.8852 188.76 15.0276V6.28829C188.76 3.4879 188.933 1.55174 191.23 0.99102L192.349 0.834839ZM162.859 12.1459L162.787 14.1352C162.437 18.5662 160.797 21.4878 156.711 22.2369C156.106 22.3559 155.488 22.4017 154.872 22.3733C152.627 22.327 151.774 21.336 151.774 18.8589V1.41971C152.437 1.27652 153.114 1.2014 153.793 1.1955C159.643 1.1955 162.493 5.11694 162.826 10.9524L162.859 12.1459ZM163.6 20.6565L164.336 20.0234C166.203 18.2277 167.303 15.546 167.303 11.6951C167.303 3.49193 161.424 0.430298 154.645 0.430298L149.887 0.520464L144.365 0.430298V0.832826C146.835 0.969283 147.689 1.28326 147.689 4.12108V19.4413C147.689 22.2349 146.789 22.5516 144.365 22.7316V23.0939L149.847 23.0041C151.101 23.0041 152.36 23.0943 153.616 23.1381C154.664 23.1999 155.716 23.1698 156.76 23.048C158.884 22.8955 160.947 22.2677 162.798 21.2104L163.604 20.6565M143.202 0.834839V0.43231L139.475 0.522477L134.808 0.43231V0.834839C138.488 0.971296 139.026 3.26812 139.026 6.82889V18.7224L123.812 0.475784H117.93V0.882337C118.602 0.872371 119.27 0.978723 119.905 1.19671C121.789 1.96152 121.97 4.62102 121.97 6.51371V16.6977C121.97 19.6253 121.97 22.5094 118.694 22.7356V23.0979C119.949 23.0516 121.251 22.9614 122.508 22.9614C124.034 22.9614 125.515 23.0516 126.996 23.0979V22.7356C123.496 22.5094 122.866 20.122 122.866 16.6977V5.61124L137.588 23.3627H139.922V6.82889C139.922 4.20883 140.002 1.39113 142.637 0.900854L143.198 0.834839M116.671 23.0947V22.7356C114.247 22.5553 113.303 22.2389 113.303 19.4453V4.12309C113.303 1.32955 114.203 0.971296 116.671 0.834839V0.43231L111.329 0.522477L105.945 0.43231V0.834839C108.413 0.971296 109.267 1.28527 109.267 4.12309V19.4433C109.267 22.2369 108.367 22.5537 105.945 22.7336V23.0959L111.329 23.0057L116.671 23.0959M103.924 23.0959V22.7356C101.544 22.5553 100.559 22.2389 100.559 19.4453V4.12309C100.559 1.32955 101.5 0.971296 103.924 0.834839V0.43231L98.4944 0.522477L93.1961 0.43231V0.834839C95.6656 0.971296 96.4736 1.28527 96.4736 4.12309V10.9282L90.6825 10.9745H86.3345V4.12309C86.3345 1.32955 87.1885 0.971296 89.656 0.834839V0.43231L84.3136 0.522477L78.9287 0.4307V0.833229C81.3962 0.969686 82.2479 1.28366 82.2479 4.12148V19.4417C82.2479 22.2353 81.3501 22.5521 78.9287 22.732V23.0943L84.3124 23.0041L89.6548 23.0943V22.7356C87.231 22.5553 86.3333 22.2389 86.3333 19.4453V11.6492L91.2703 11.6053L96.4768 11.6492V19.4433C96.4768 22.2369 95.6689 22.5537 93.1993 22.7336V23.0959L98.4976 23.0057L103.927 23.0959" fill="#6F7F90"/>
</g>
<defs>
<clipPath id="clip0_1452_2369">
<rect width="192" height="23.2484" fill="white" transform="translate(0.347656 0.160278)"/>
</clipPath>
</defs>
</svg>
