<svg width="144" height="48" viewBox="0 0 144 48" fill="none" xmlns="http://www.w3.org/2000/svg">
<g id="Group">
<g id="Group_2">
<g id="&#60;Group&#62;">
<g id="&#60;Group&#62;_2">
<g id="&#60;Group&#62;_3">
<path id="&#60;Path&#62;" d="M30.1186 24.3604C30.1314 23.3588 30.3963 22.3768 30.8884 21.5056C31.3806 20.6345 32.084 19.9026 32.9334 19.378C32.3938 18.6038 31.682 17.9666 30.8544 17.5172C30.0269 17.0677 29.1064 16.8183 28.1661 16.7887C26.1604 16.5772 24.2158 17.9945 23.1937 17.9945C22.1519 17.9945 20.5782 16.8097 18.8835 16.8448C17.7874 16.8803 16.7192 17.2006 15.7829 17.7742C14.8466 18.3479 14.0741 19.1555 13.5408 20.1182C11.2308 24.1363 12.9539 30.0416 15.1667 33.2895C16.2739 34.8799 17.5678 36.6565 19.2609 36.5935C20.9177 36.5244 21.5364 35.5321 23.5363 35.5321C25.5176 35.5321 26.0982 36.5935 27.8256 36.5534C29.6034 36.5244 30.7235 34.9559 31.7918 33.3504C32.5873 32.2172 33.1994 30.9647 33.6055 29.6394C32.5726 29.2006 31.6912 28.4659 31.0712 27.5272C30.4511 26.5884 30.1198 25.4871 30.1186 24.3604Z" fill="#D9E1EB"/>
<path id="&#60;Path&#62;_2" d="M26.8558 14.6535C27.8251 13.4844 28.3027 11.9818 28.187 10.4647C26.7061 10.621 25.3381 11.3321 24.3557 12.4563C23.8754 13.0055 23.5075 13.6444 23.2731 14.3365C23.0387 15.0286 22.9424 15.7604 22.9896 16.4899C23.7303 16.4976 24.4631 16.3363 25.1328 16.0182C25.8025 15.7001 26.3916 15.2335 26.8558 14.6535Z" fill="#D9E1EB"/>
</g>
</g>
<g id="Group_3">
<path id="Vector" d="M51.0615 32.5676H45.4076L44.0499 36.5953H41.6551L47.0103 21.6937H49.4984L54.8536 36.5953H52.418L51.0615 32.5676ZM45.9932 30.709H50.4748L48.2655 24.1723H48.2037L45.9932 30.709Z" fill="#D9E1EB"/>
<path id="Vector_2" d="M66.4191 31.1635C66.4191 34.5397 64.6204 36.7088 61.906 36.7088C61.2184 36.7449 60.5346 36.5858 59.9329 36.2497C59.3311 35.9135 58.8357 35.4139 58.5035 34.808H58.4521V40.1893H56.2323V25.7307H58.381V27.5377H58.4218C58.7694 26.9347 59.2731 26.4377 59.8794 26.0995C60.4858 25.7613 61.172 25.5945 61.8652 25.617C64.6098 25.617 66.4191 27.7967 66.4191 31.1635ZM64.1375 31.1635C64.1375 28.9639 63.006 27.5178 61.2796 27.5178C59.5836 27.5178 58.4428 28.9943 58.4428 31.1635C58.4428 33.3526 59.5836 34.8186 61.2796 34.8186C63.006 34.8186 64.1375 33.383 64.1375 31.1635Z" fill="#D9E1EB"/>
<path id="Vector_3" d="M78.3216 31.1635C78.3216 34.5397 76.523 36.7088 73.8086 36.7088C73.121 36.7449 72.4372 36.5858 71.8354 36.2496C71.2337 35.9135 70.7383 35.4139 70.406 34.808H70.3547V40.1893H68.1349V25.7307H70.2835V27.5377H70.3243C70.6719 26.9347 71.1756 26.4377 71.782 26.0995C72.3883 25.7613 73.0746 25.5945 73.7677 25.617C76.5125 25.617 78.3216 27.7967 78.3216 31.1635ZM76.04 31.1635C76.04 28.9639 74.9086 27.5178 73.1822 27.5178C71.4862 27.5178 70.3454 28.9943 70.3454 31.1635C70.3454 33.3525 71.4862 34.8186 73.1822 34.8186C74.9086 34.8186 76.04 33.383 76.04 31.1635H76.04Z" fill="#D9E1EB"/>
<path id="Vector_4" d="M86.1883 32.4434C86.3527 33.9212 87.7817 34.8914 89.7343 34.8914C91.6053 34.8914 92.9514 33.9211 92.9514 32.5887C92.9514 31.432 92.1395 30.7395 90.2172 30.2649L88.2949 29.7996C85.5712 29.1387 84.3068 27.859 84.3068 25.7824C84.3068 23.2113 86.537 21.4453 89.704 21.4453C92.8382 21.4453 94.9869 23.2113 95.0592 25.7824H92.8184C92.6843 24.2953 91.4606 23.3977 89.6724 23.3977C87.8843 23.3977 86.6606 24.3059 86.6606 25.6277C86.6606 26.6813 87.4422 27.3012 89.354 27.7757L90.9882 28.1789C94.0315 28.9019 95.296 30.1301 95.296 32.3097C95.296 35.0976 93.0855 36.8437 89.5698 36.8437C86.2804 36.8437 84.0594 35.1386 83.916 32.4433L86.1883 32.4434Z" fill="#D9E1EB"/>
<path id="Vector_5" d="M100.087 23.1606V25.7317H102.143V27.4978H100.087V33.4872C100.087 34.4177 100.498 34.8513 101.402 34.8513C101.647 34.847 101.89 34.8298 102.133 34.7997V36.5552C101.726 36.6314 101.313 36.666 100.9 36.6583C98.7102 36.6583 97.8564 35.8321 97.8564 33.7251V27.4978H96.284V25.7317H97.8563V23.1606H100.087Z" fill="#D9E1EB"/>
<path id="Vector_6" d="M103.334 31.1646C103.334 27.7462 105.338 25.5981 108.463 25.5981C111.598 25.5981 113.593 27.7461 113.593 31.1646C113.593 34.5923 111.609 36.731 108.463 36.731C105.318 36.731 103.334 34.5923 103.334 31.1646ZM111.331 31.1646C111.331 28.8196 110.262 27.4356 108.463 27.4356C106.664 27.4356 105.596 28.8302 105.596 31.1646C105.596 33.5188 106.664 34.8923 108.463 34.8923C110.262 34.8923 111.331 33.5188 111.331 31.1646H111.331Z" fill="#D9E1EB"/>
<path id="Vector_7" d="M115.423 25.7306H117.54V27.5798H117.592C117.735 27.0022 118.072 26.4918 118.545 26.1344C119.019 25.7769 119.601 25.5942 120.193 25.6169C120.449 25.616 120.704 25.6439 120.954 25.7001V27.786C120.631 27.6869 120.294 27.6414 119.956 27.6513C119.634 27.6381 119.312 27.6952 119.014 27.8187C118.715 27.9422 118.447 28.1291 118.227 28.3665C118.008 28.604 117.842 28.8864 117.741 29.1944C117.64 29.5024 117.607 29.8287 117.643 30.1509V36.595H115.423L115.423 25.7306Z" fill="#D9E1EB"/>
<path id="Vector_8" d="M131.188 33.4052C130.889 35.3774 128.978 36.731 126.531 36.731C123.386 36.731 121.433 34.6134 121.433 31.2161C121.433 27.8083 123.396 25.5981 126.438 25.5981C129.43 25.5981 131.312 27.663 131.312 30.9571V31.7212H123.674V31.856C123.638 32.2558 123.688 32.6586 123.82 33.0376C123.951 33.4166 124.162 33.7632 124.437 34.0542C124.712 34.3453 125.046 34.5742 125.416 34.7258C125.786 34.8773 126.184 34.9481 126.583 34.9333C127.107 34.9827 127.634 34.8606 128.084 34.5853C128.534 34.31 128.883 33.8961 129.08 33.4052L131.188 33.4052ZM123.684 30.1626H129.091C129.111 29.8031 129.056 29.4433 128.931 29.1059C128.806 28.7684 128.613 28.4606 128.364 28.2016C128.115 27.9427 127.815 27.7383 127.484 27.6013C127.153 27.4642 126.796 27.3974 126.438 27.4052C126.077 27.403 125.718 27.4728 125.384 27.6105C125.049 27.7482 124.745 27.951 124.489 28.2074C124.233 28.4638 124.03 28.7685 123.892 29.1041C123.754 29.4397 123.683 29.7994 123.684 30.1626V30.1626Z" fill="#D9E1EB"/>
</g>
</g>
</g>
<g id="&#60;Group&#62;_4">
<g id="Group_4">
<path id="Vector_9" d="M45.715 10.4775C46.1804 10.4439 46.6474 10.5146 47.0823 10.6843C47.5172 10.854 47.9092 11.1186 48.23 11.4589C48.5508 11.7993 48.7924 12.2069 48.9375 12.6524C49.0825 13.098 49.1272 13.5703 49.0686 14.0353C49.0686 16.3228 47.838 17.6377 45.715 17.6377H43.1406V10.4775H45.715ZM44.2476 16.6251H45.5913C45.9239 16.6451 46.2567 16.5903 46.5655 16.4647C46.8743 16.3392 47.1514 16.1461 47.3765 15.8994C47.6017 15.6527 47.7692 15.3587 47.867 15.0388C47.9648 14.7188 47.9903 14.381 47.9418 14.0499C47.9868 13.7201 47.9587 13.3844 47.8594 13.0668C47.7601 12.7492 47.5921 12.4576 47.3675 12.2128C47.1429 11.9681 46.8671 11.7764 46.5601 11.6513C46.253 11.5262 45.9222 11.4709 45.5913 11.4893H44.2476V16.6251Z" fill="#D9E1EB"/>
<path id="Vector_10" d="M50.319 14.9345C50.2852 14.5794 50.3257 14.2211 50.4377 13.8826C50.5498 13.5442 50.7311 13.233 50.9699 12.969C51.2087 12.705 51.4998 12.4941 51.8246 12.3497C52.1493 12.2054 52.5004 12.1309 52.8555 12.1309C53.2106 12.1309 53.5617 12.2054 53.8864 12.3497C54.2112 12.4941 54.5023 12.705 54.7411 12.969C54.9799 13.233 55.1612 13.5442 55.2733 13.8826C55.3854 14.2211 55.4258 14.5794 55.392 14.9345C55.4264 15.29 55.3865 15.6488 55.2747 15.9878C55.1629 16.3268 54.9817 16.6386 54.7428 16.9031C54.504 17.1676 54.2126 17.379 53.8876 17.5236C53.5626 17.6682 53.211 17.743 52.8555 17.743C52.5 17.743 52.1484 17.6682 51.8234 17.5236C51.4984 17.379 51.207 17.1676 50.9682 16.9031C50.7293 16.6386 50.5481 16.3268 50.4363 15.9878C50.3245 15.6488 50.2846 15.29 50.319 14.9345ZM54.3002 14.9345C54.3002 13.7632 53.7764 13.0783 52.8572 13.0783C51.9346 13.0783 51.4155 13.7632 51.4155 14.9345C51.4155 16.1152 51.9346 16.7949 52.8572 16.7949C53.7764 16.7949 54.3002 16.1105 54.3002 14.9345H54.3002Z" fill="#D9E1EB"/>
<path id="Vector_11" d="M62.1353 17.6378H61.0341L59.9225 13.6581H59.8385L58.7315 17.6378H57.6409L56.1583 12.2343H57.235L58.1985 16.3575H58.2778L59.3836 12.2343H60.4019L61.5077 16.3575H61.5917L62.5505 12.2343H63.612L62.1353 17.6378Z" fill="#D9E1EB"/>
<path id="Vector_12" d="M64.859 12.2339H65.8808V13.0923H65.9601C66.0947 12.784 66.3216 12.5255 66.6093 12.353C66.897 12.1804 67.2312 12.1023 67.5651 12.1296C67.8268 12.1098 68.0896 12.1495 68.334 12.2456C68.5784 12.3417 68.7981 12.4918 68.9769 12.6848C69.1557 12.8778 69.289 13.1088 69.3668 13.3606C69.4447 13.6124 69.4652 13.8785 69.4268 14.1393V17.6374H68.3653V14.4071C68.3653 13.5388 67.9897 13.1069 67.2047 13.1069C67.027 13.0986 66.8496 13.129 66.6847 13.196C66.5198 13.263 66.3713 13.365 66.2493 13.4951C66.1273 13.6252 66.0348 13.7802 65.978 13.9495C65.9213 14.1189 65.9016 14.2986 65.9204 14.4763V17.6374H64.8589L64.859 12.2339Z" fill="#D9E1EB"/>
<path id="Vector_13" d="M71.1182 10.1249H72.1797V17.6378H71.1182V10.1249Z" fill="#D9E1EB"/>
<path id="Vector_14" d="M73.6552 14.9328C73.6214 14.5777 73.6619 14.2194 73.774 13.8809C73.8861 13.5424 74.0674 13.2311 74.3063 12.9672C74.5451 12.7032 74.8362 12.4923 75.161 12.3479C75.4857 12.2036 75.8369 12.129 76.192 12.129C76.5471 12.129 76.8983 12.2036 77.223 12.3479C77.5477 12.4923 77.8388 12.7032 78.0777 12.9672C78.3165 13.2311 78.4978 13.5424 78.6099 13.8809C78.7221 14.2194 78.7625 14.5777 78.7287 14.9328C78.7631 15.2883 78.7232 15.647 78.6113 15.9861C78.4995 16.3251 78.3183 16.6369 78.0794 16.9014C77.8405 17.1659 77.5492 17.3772 77.2241 17.5218C76.8991 17.6665 76.5475 17.7412 76.192 17.7412C75.8365 17.7412 75.4849 17.6665 75.1598 17.5218C74.8348 17.3772 74.5434 17.1659 74.3045 16.9014C74.0656 16.6369 73.8845 16.3251 73.7726 15.9861C73.6608 15.647 73.6208 15.2883 73.6552 14.9328ZM77.6363 14.9328C77.6363 13.7615 77.1126 13.0765 76.1934 13.0765C75.2708 13.0765 74.7517 13.7615 74.7517 14.9328C74.7517 16.1135 75.2708 16.7931 76.1934 16.7931C77.1126 16.7931 77.6363 16.1088 77.6363 14.9328H77.6363Z" fill="#D9E1EB"/>
<path id="Vector_15" d="M79.8462 16.1105C79.8462 15.1379 80.5671 14.5771 81.8467 14.4975L83.3036 14.4131V13.9467C83.3036 13.376 82.928 13.0537 82.2025 13.0537C81.6099 13.0537 81.1993 13.2723 81.0815 13.6543H80.0539C80.1623 12.7262 81.0314 12.1309 82.2515 12.1309C83.5999 12.1309 84.3604 12.8053 84.3604 13.9467V17.6387H83.3386V16.8793H83.2546C83.0842 17.1517 82.8448 17.3738 82.561 17.5228C82.2771 17.6719 81.959 17.7426 81.6391 17.7277C81.4133 17.7513 81.1851 17.7271 80.9692 17.6567C80.7533 17.5862 80.5544 17.4711 80.3855 17.3187C80.2166 17.1664 80.0814 16.9801 79.9885 16.7721C79.8956 16.564 79.8471 16.3386 79.8462 16.1105ZM83.3036 15.6488V15.1971L81.9902 15.2814C81.2495 15.3312 80.9135 15.5844 80.9135 16.0607C80.9135 16.5471 81.3335 16.8301 81.9109 16.8301C82.0801 16.8473 82.251 16.8301 82.4135 16.7796C82.5759 16.7291 82.7266 16.6463 82.8565 16.5361C82.9865 16.4259 83.093 16.2905 83.1698 16.1381C83.2466 15.9857 83.2921 15.8193 83.3036 15.6488Z" fill="#D9E1EB"/>
<path id="Vector_16" d="M85.7555 14.9337C85.7555 13.2263 86.6292 12.1446 87.9881 12.1446C88.3243 12.1291 88.6579 12.2099 88.9499 12.3778C89.242 12.5457 89.4805 12.7936 89.6375 13.0926H89.7168V10.1249H90.7783V17.6378H89.7612V16.7841H89.6772C89.508 17.081 89.2612 17.3259 88.9635 17.4921C88.6658 17.6582 88.3285 17.7394 87.9881 17.7268C86.6199 17.7269 85.7555 16.6452 85.7555 14.9337ZM86.852 14.9337C86.852 16.0798 87.3898 16.7694 88.2891 16.7694C89.1838 16.7694 89.7367 16.0698 89.7367 14.9384C89.7367 13.8122 89.178 13.1026 88.2891 13.1026C87.3956 13.1026 86.852 13.797 86.852 14.9337H86.852Z" fill="#D9E1EB"/>
<path id="Vector_17" d="M95.17 14.9345C95.1362 14.5794 95.1767 14.2211 95.2887 13.8826C95.4008 13.5442 95.5821 13.233 95.8209 12.969C96.0597 12.705 96.3508 12.4941 96.6756 12.3497C97.0003 12.2054 97.3514 12.1309 97.7065 12.1309C98.0616 12.1309 98.4127 12.2054 98.7375 12.3497C99.0622 12.4941 99.3533 12.705 99.5921 12.969C99.8309 13.233 100.012 13.5442 100.124 13.8826C100.236 14.2211 100.277 14.5794 100.243 14.9345C100.277 15.29 100.237 15.6488 100.126 15.9878C100.014 16.3268 99.8327 16.6386 99.5939 16.9031C99.355 17.1676 99.0636 17.379 98.7386 17.5236C98.4136 17.6682 98.062 17.743 97.7065 17.743C97.351 17.743 96.9994 17.6682 96.6744 17.5236C96.3494 17.379 96.058 17.1676 95.8192 16.9031C95.5803 16.6386 95.3991 16.3268 95.2873 15.9878C95.1755 15.6488 95.1356 15.29 95.17 14.9345ZM99.1512 14.9345C99.1512 13.7632 98.6274 13.0783 97.7083 13.0783C96.7856 13.0783 96.2665 13.7632 96.2665 14.9345C96.2665 16.1152 96.7856 16.7949 97.7083 16.7949C98.6274 16.7949 99.1512 16.1105 99.1512 14.9345Z" fill="#D9E1EB"/>
<path id="Vector_18" d="M101.667 12.2339H102.689V13.0923H102.768C102.903 12.784 103.13 12.5255 103.418 12.353C103.705 12.1804 104.039 12.1023 104.373 12.1296C104.635 12.1098 104.898 12.1495 105.142 12.2456C105.387 12.3417 105.606 12.4918 105.785 12.6848C105.964 12.8778 106.097 13.1088 106.175 13.3606C106.253 13.6124 106.273 13.8785 106.235 14.1393V17.6374H105.174V14.4071C105.174 13.5388 104.798 13.1069 104.013 13.1069C103.835 13.0986 103.658 13.129 103.493 13.196C103.328 13.263 103.18 13.365 103.058 13.4951C102.936 13.6252 102.843 13.7802 102.786 13.9495C102.73 14.1189 102.71 14.2986 102.729 14.4763V17.6374H101.667V12.2339Z" fill="#D9E1EB"/>
<path id="Vector_19" d="M112.233 10.8889V12.2588H113.398V13.1571H112.233V15.9356C112.233 16.5016 112.465 16.7495 112.994 16.7495C113.129 16.749 113.264 16.7408 113.398 16.7249V17.6131C113.208 17.6474 113.015 17.6656 112.821 17.6676C111.64 17.6676 111.17 17.2504 111.17 16.2086V13.157H110.317V12.2588H111.17V10.8889H112.233Z" fill="#D9E1EB"/>
<path id="Vector_20" d="M114.848 10.1249H115.9V13.1026H115.984C116.125 12.7914 116.359 12.5315 116.652 12.3583C116.946 12.1851 117.285 12.107 117.624 12.1347C117.885 12.1204 118.145 12.1641 118.387 12.2625C118.628 12.361 118.845 12.5118 119.022 12.7042C119.199 12.8966 119.332 13.1259 119.41 13.3756C119.489 13.6254 119.511 13.8895 119.477 14.1491V17.6378H118.414V14.4122C118.414 13.5491 118.014 13.112 117.264 13.112C117.082 13.0969 116.898 13.1221 116.726 13.1858C116.555 13.2495 116.399 13.3501 116.27 13.4806C116.141 13.611 116.042 13.7683 115.98 13.9412C115.917 14.1142 115.894 14.2987 115.91 14.4819V17.6378H114.848L114.848 10.1249Z" fill="#D9E1EB"/>
<path id="Vector_21" d="M125.666 16.1779C125.522 16.6718 125.209 17.099 124.783 17.3848C124.357 17.6705 123.845 17.7967 123.335 17.7412C122.981 17.7506 122.629 17.6824 122.303 17.5414C121.978 17.4004 121.687 17.1899 121.45 16.9245C121.214 16.6591 121.038 16.3453 120.934 16.0047C120.831 15.6641 120.802 15.3049 120.851 14.9522C120.804 14.5983 120.833 14.2384 120.936 13.8968C121.039 13.5552 121.214 13.2399 121.45 12.9722C121.685 12.7045 121.974 12.4907 122.299 12.3452C122.624 12.1998 122.975 12.1261 123.331 12.1291C124.827 12.1291 125.73 13.1563 125.73 14.8531V15.2252H121.932V15.285C121.916 15.4833 121.94 15.6829 122.005 15.871C122.07 16.0591 122.173 16.2315 122.308 16.3773C122.442 16.523 122.606 16.6389 122.788 16.7173C122.97 16.7958 123.167 16.8352 123.365 16.833C123.618 16.8636 123.876 16.8177 124.104 16.701C124.331 16.5844 124.52 16.4023 124.644 16.1779L125.666 16.1779ZM121.932 14.4365H124.649C124.662 14.2552 124.638 14.073 124.577 13.9018C124.516 13.7305 124.42 13.5739 124.295 13.4421C124.171 13.3103 124.02 13.2061 123.853 13.1363C123.686 13.0665 123.506 13.0326 123.325 13.0367C123.141 13.0344 122.959 13.0691 122.789 13.1386C122.619 13.2081 122.465 13.3112 122.335 13.4416C122.205 13.5721 122.102 13.7273 122.033 13.8982C121.964 14.0691 121.93 14.2521 121.932 14.4365H121.932Z" fill="#D9E1EB"/>
</g>
</g>
</g>
</svg>
