<svg width="164" height="48" viewBox="0 0 164 48" fill="none" xmlns="http://www.w3.org/2000/svg">
<g id="g4036">
<g id="g4038">
<path id="path4046" d="M57.6438 12.3504C57.6438 13.3508 57.3437 14.1474 56.7425 14.7417C56.0596 15.4483 55.1697 15.8019 54.0756 15.8019C53.0279 15.8019 52.1371 15.4437 51.4045 14.7263C50.6706 14.0094 50.3044 13.1204 50.3044 12.0598C50.3044 10.9987 50.6706 10.1102 51.4045 9.3928C52.1371 8.6759 53.0279 8.31722 54.0756 8.31722C54.5955 8.31722 55.0932 8.41751 55.5658 8.61763C56.0383 8.81823 56.4174 9.0845 56.701 9.41799L56.0629 10.0481C55.5824 9.4814 54.9207 9.19829 54.0756 9.19829C53.3115 9.19829 52.6508 9.46325 52.0932 9.99352C51.5354 10.5244 51.2567 11.2127 51.2567 12.0598C51.2567 12.9068 51.5354 13.5952 52.0932 14.1261C52.6508 14.6563 53.3115 14.9213 54.0756 14.9213C54.8862 14.9213 55.562 14.6549 56.1031 14.1214C56.4543 13.7738 56.6574 13.2907 56.7117 12.6703H54.0756V11.8098H57.5932C57.6272 11.9969 57.6438 12.1764 57.6438 12.3504Z" fill="#D9E1EB"/>
<path id="path4048" d="M57.6438 12.3504H57.5229C57.5219 13.3279 57.2326 14.0872 56.657 14.6573L56.6556 14.6582L56.6552 14.6592C55.994 15.3414 55.1442 15.681 54.0756 15.6825C53.0558 15.681 52.2023 15.3377 51.4896 14.6419C50.7784 13.9445 50.4267 13.0933 50.4254 12.0598C50.4267 11.0257 50.7784 10.175 51.4896 9.47815C52.2023 8.7818 53.0558 8.43803 54.0756 8.4366C54.5799 8.4366 55.0601 8.53368 55.518 8.72723C55.9764 8.92221 56.3385 9.17773 56.6083 9.49499L56.701 9.41797L56.6155 9.33356L55.9774 9.96413L56.0629 10.0481L56.1561 9.97165C55.6532 9.3769 54.9472 9.07708 54.0756 9.07887C53.2832 9.07792 52.5861 9.35732 52.0094 9.90776C51.4273 10.46 51.1347 11.1871 51.1357 12.0598C51.1347 12.9325 51.4273 13.6595 52.0094 14.2118C52.5861 14.7622 53.2832 15.0416 54.0756 15.0407C54.9131 15.0421 55.6268 14.7617 56.1886 14.2058C56.5639 13.8345 56.7766 13.3201 56.8324 12.6805L56.8436 12.5509H54.1966V11.9291H57.5933V11.8097L57.4741 11.8308C57.5072 12.0118 57.5229 12.1838 57.5229 12.3504H57.6438H57.7648C57.7648 12.1689 57.7478 11.9824 57.7123 11.7884L57.6944 11.6903H53.9546V12.6703V12.7897H56.7118V12.6703L56.5913 12.66C56.5379 13.2608 56.3441 13.7133 56.0176 14.037C55.4977 14.5481 54.8597 14.8004 54.0756 14.8019C53.3398 14.8009 52.7155 14.5509 52.1773 14.0402C51.6442 13.5313 51.379 12.8816 51.3777 12.0598C51.379 11.2379 51.6442 10.5882 52.1773 10.0793C52.7155 9.56866 53.3398 9.31863 54.0756 9.31768C54.8937 9.31959 55.5115 9.58633 55.9704 10.1251L56.0554 10.2249L56.7865 9.50239L56.8649 9.42502L56.7936 9.34144C56.4963 8.99171 56.1003 8.71409 55.6135 8.508C55.1258 8.30132 54.6111 8.1978 54.0756 8.1978C53.0001 8.19684 52.0719 8.56997 51.319 9.30836C50.5633 10.0453 50.1825 10.9716 50.1834 12.0598C50.1825 13.1474 50.5633 14.0742 51.3195 14.8117C52.0719 15.5496 53.0001 15.9222 54.0756 15.9213C55.1957 15.9222 56.1249 15.5551 56.83 14.8242L56.7425 14.7417L56.828 14.8261C57.4547 14.2081 57.7657 13.3732 57.7648 12.3504H57.6438Z" fill="#D9E1EB"/>
<path id="path4050" d="M63.2204 9.35778H59.9146V11.6293H62.8958V12.4902H59.9146V14.7617H63.2204V15.6418H58.9826V8.47766H63.2204V9.35778Z" fill="#D9E1EB"/>
<path id="path4052" d="M63.2204 9.35776V9.23836H59.7936V11.7487H62.7748V12.3704L59.7936 12.3708V14.8811H63.0994V15.5224H59.1036V8.59705H63.0994V9.35776H63.2204V9.23836V9.35776H63.3414V8.47764V8.35824H58.8616V15.7612H63.3414V14.7617V14.6423H60.0356V12.6096H63.0168V11.6293V11.5099H60.0356V9.47717H63.3414V9.35776H63.2204Z" fill="#D9E1EB"/>
<path id="path4054" d="M67.1538 15.6418H66.2204V9.35778H64.193V8.47766H69.1813V9.35778H67.1538V15.6418Z" fill="#D9E1EB"/>
<path id="path4056" d="M67.1538 15.6418V15.5224H66.3414V9.23836H64.314V8.59705H69.0603V9.23836H67.0329V15.6418H67.1538V15.5224V15.6418H67.2748V9.47717H69.3023V8.47764V8.35824H64.072V9.35776V9.47717H66.0995V15.7612H67.1538H67.2748V15.6418H67.1538Z" fill="#D9E1EB"/>
<path id="path4058" d="M72.7905 15.6418V8.47766H73.723V15.6418H72.7905Z" fill="#D9E1EB"/>
<path id="path4060" d="M72.7905 15.6418H72.9115V8.59705H73.6019V15.5224H72.7905V15.6418H72.9115H72.7905V15.7612H73.7229H73.8439V8.35824H72.7905H72.6695V15.7612H72.7905V15.6418Z" fill="#D9E1EB"/>
<path id="path4062" d="M77.8605 15.6418H76.9271V9.35778H74.8998V8.47766H79.888V9.35778H77.8605V15.6418Z" fill="#D9E1EB"/>
<path id="path4064" d="M77.8605 15.6418V15.5224H77.0481V9.23836H75.0207V8.59705H79.7669V9.23836H77.7395V15.6418H77.8605V15.5224V15.6418H77.9814V9.47717H80.0089V8.47764V8.35824H74.7787V9.35776V9.47717H76.8061V15.7612H77.8605H77.9814V15.6418H77.8605Z" fill="#D9E1EB"/>
<path id="path4066" d="M84.6971 14.1163C85.2344 14.6531 85.8918 14.9213 86.6693 14.9213C87.4467 14.9213 88.1045 14.6531 88.641 14.1163C89.1787 13.5794 89.4482 12.8932 89.4482 12.0598C89.4482 11.2264 89.1787 10.5401 88.641 10.0033C88.1045 9.46647 87.4467 9.19829 86.6693 9.19829C85.8918 9.19829 85.2344 9.46647 84.6971 10.0033C84.1607 10.5401 83.8914 11.2264 83.8914 12.0598C83.8914 12.8932 84.1607 13.5794 84.6971 14.1163ZM89.3309 14.716C88.6173 15.4403 87.7297 15.8019 86.6693 15.8019C85.6078 15.8019 84.7207 15.4403 84.0086 14.716C83.2944 13.9926 82.9391 13.107 82.9391 12.0598C82.9391 11.0126 83.2944 10.1269 84.0086 9.40354C84.7207 8.67913 85.6078 8.31722 86.6693 8.31722C87.7241 8.31722 88.6093 8.68104 89.3262 9.4082C90.0422 10.1354 90.4005 11.0192 90.4005 12.0598C90.4005 13.107 90.0431 13.9926 89.3309 14.716Z" fill="#D9E1EB"/>
<path id="path4068" d="M84.6971 14.1162L84.6111 14.2002C85.1683 14.7585 85.8635 15.0421 86.6693 15.0407C87.4745 15.0421 88.1707 14.7585 88.727 14.2002C89.2879 13.6414 89.57 12.9184 89.5692 12.0598C89.57 11.2011 89.2879 10.4782 88.727 9.91935C88.1707 9.36102 87.4745 9.07744 86.6693 9.07887C85.8635 9.07744 85.1683 9.36102 84.6111 9.91935C84.0515 10.4782 83.7689 11.2011 83.7704 12.0598C83.7689 12.9184 84.0515 13.6414 84.6111 14.2002L84.6971 14.1162L84.7831 14.0323C84.2699 13.5168 84.0133 12.8685 84.0123 12.0598C84.0133 11.2511 84.2699 10.6027 84.7831 10.0872C85.3011 9.57189 85.9196 9.31911 86.6693 9.31768C87.4183 9.31911 88.0383 9.57189 88.5549 10.0872C89.0691 10.6027 89.3257 11.2511 89.3267 12.0598C89.3257 12.8685 89.0691 13.5168 88.5549 14.0323C88.0383 14.5476 87.4183 14.8004 86.6693 14.8019C85.9196 14.8004 85.3011 14.5476 84.7831 14.0323L84.6971 14.1162ZM89.3309 14.716L89.2444 14.633C88.5507 15.3345 87.7024 15.681 86.6693 15.6825C85.6357 15.681 84.7874 15.3345 84.095 14.633L84.0917 14.6293L84.095 14.633C83.4027 13.9291 83.061 13.0803 83.0601 12.0598C83.061 11.0392 83.4027 10.1904 84.095 9.48651C84.7874 8.78502 85.6357 8.43803 86.6693 8.4366C87.6957 8.43803 88.5421 8.78645 89.2397 9.49165C89.9344 10.1988 90.278 11.0463 90.2795 12.0598C90.278 13.0803 89.9354 13.9291 89.2444 14.633L89.3309 14.716L89.4179 14.799C90.1513 14.0556 90.5223 13.1334 90.5214 12.0598C90.5223 10.9922 90.1499 10.0719 89.4131 9.3252C88.6759 8.57558 87.7524 8.19648 86.6693 8.19779C85.5804 8.19648 84.6541 8.57379 83.9216 9.32054V9.32006C83.1867 10.0639 82.8171 10.9861 82.8181 12.0598C82.8171 13.1334 83.1867 14.0556 83.9216 14.7995L83.9248 14.8028L83.9216 14.799C84.6541 15.5457 85.5804 15.9222 86.6693 15.9213C87.7577 15.9222 88.6839 15.5457 89.4179 14.799L89.3309 14.716Z" fill="#D9E1EB"/>
<path id="path4070" d="M91.7095 15.6418V8.47766H92.8447L96.3726 14.0509H96.4128L96.3726 12.6703V8.47766H97.306V15.6418H96.3325L92.6415 9.7985H92.6013L92.6415 11.1796V15.6418H91.7095Z" fill="#D9E1EB"/>
<path id="path4072" d="M91.7095 15.6418H91.8305V8.59705H92.7775L96.3055 14.1703H96.4128H96.537L96.4936 12.6685V8.59705H97.185V15.5224H96.3996L92.7086 9.67908H92.6013H92.477L92.5205 11.1815V15.5224H91.7095V15.6418H91.8305H91.7095V15.7612H92.6414H92.7624V11.1777L92.7223 9.79526L92.6013 9.79848V9.91788H92.6414V9.79848L92.5388 9.862L96.2653 15.7612H97.306H97.427V8.35824H96.3726H96.2516V12.6717L96.2918 14.0541L96.4128 14.0509V13.9315H96.3726V14.0509L96.4752 13.9875L92.9117 8.35824H91.7095H91.5885V15.7612H91.7095V15.6418Z" fill="#D9E1EB"/>
<path id="path4074" d="M129.651 35.9405H131.909V21.0137H129.651V35.9405ZM149.985 26.3906L147.397 32.8622H147.32L144.634 26.3906H142.202L146.23 35.4358L143.933 40.4671H146.289L152.495 26.3906H149.985ZM137.182 34.2451C136.442 34.2451 135.411 33.8803 135.411 32.9774C135.411 31.8253 136.696 31.3836 137.804 31.3836C138.798 31.3836 139.263 31.5948 139.867 31.8832C139.692 33.2656 138.485 34.2451 137.182 34.2451ZM137.455 26.0641C135.82 26.0641 134.128 26.7749 133.427 28.3496L135.431 29.1751C135.859 28.3496 136.656 28.0804 137.493 28.0804C138.661 28.0804 139.848 28.7721 139.867 30.0012V30.1546C139.458 29.9241 138.583 29.5786 137.513 29.5786C135.353 29.5786 133.154 30.7497 133.154 32.9391C133.154 34.9363 134.925 36.2231 136.909 36.2231C138.427 36.2231 139.263 35.551 139.79 34.7638H139.867V35.9158H142.046V30.1928C142.046 27.5431 140.042 26.0641 137.455 26.0641ZM123.503 28.2077H120.292V23.0912H123.503C125.19 23.0912 126.149 24.4703 126.149 25.6494C126.149 26.8062 125.19 28.2077 123.503 28.2077ZM123.445 21.0137H118.035V35.9405H120.292V30.2852H123.445C125.947 30.2852 128.406 28.4974 128.406 25.6494C128.406 22.8015 125.947 21.0137 123.445 21.0137ZM93.9473 34.2479C92.3876 34.2479 91.0819 32.9591 91.0819 31.1891C91.0819 29.4004 92.3876 28.0921 93.9473 28.0921C95.487 28.0921 96.6954 29.4004 96.6954 31.1891C96.6954 32.9591 95.487 34.2479 93.9473 34.2479ZM96.5395 27.2265H96.4614C95.9549 26.6303 94.9799 26.0917 93.7521 26.0917C91.1792 26.0917 88.821 28.3229 88.821 31.1891C88.821 34.0361 91.1792 36.2483 93.7521 36.2483C94.9799 36.2483 95.9549 35.7096 96.4614 35.0944H96.5395V35.8253C96.5395 37.7685 95.487 38.8071 93.7913 38.8071C92.4075 38.8071 91.5498 37.8258 91.1986 36.9988L89.2303 37.8067C89.7955 39.1532 91.2965 40.8076 93.7913 40.8076C96.4421 40.8076 98.6836 39.2684 98.6836 35.5175V26.3995H96.5395V27.2265ZM100.243 35.9405H102.504V21.0132H100.243V35.9405ZM105.837 31.0161C105.778 29.0538 107.377 28.0538 108.526 28.0538C109.424 28.0538 110.183 28.496 110.436 29.1313L105.837 31.0161ZM112.854 29.3234C112.425 28.1881 111.119 26.0917 108.448 26.0917C105.798 26.0917 103.595 28.1499 103.595 31.17C103.595 34.017 105.778 36.2483 108.702 36.2483C111.061 36.2483 112.425 34.8248 112.99 33.9978L111.236 32.8434C110.652 33.69 109.852 34.2479 108.702 34.2479C107.552 34.2479 106.733 33.7283 106.207 32.7091L113.087 29.9004L112.854 29.3234ZM58.0375 27.6499V29.8043H63.261C63.1051 31.0161 62.6958 31.9009 62.072 32.5165C61.3121 33.267 60.123 34.0939 58.0375 34.0939C54.8214 34.0939 52.3072 31.5356 52.3072 28.3616C52.3072 25.1877 54.8214 22.629 58.0375 22.629C59.7723 22.629 61.0389 23.3024 61.9746 24.1681L63.5144 22.6486C62.2086 21.4172 60.4737 20.4746 58.0375 20.4746C53.6323 20.4746 49.9291 24.0142 49.9291 28.3616C49.9291 32.7091 53.6323 36.2483 58.0375 36.2483C60.4156 36.2483 62.2086 35.4793 63.6118 34.0361C65.0541 32.6126 65.5026 30.6121 65.5026 28.9965C65.5026 28.496 65.4638 28.0347 65.3854 27.6499H58.0375ZM71.4413 34.2479C69.8817 34.2479 68.5367 32.9782 68.5367 31.17C68.5367 29.3425 69.8817 28.0921 71.4413 28.0921C73.0003 28.0921 74.3453 29.3425 74.3453 31.17C74.3453 32.9782 73.0003 34.2479 71.4413 34.2479ZM71.4413 26.0917C68.5952 26.0917 66.2757 28.2268 66.2757 31.17C66.2757 34.0939 68.5952 36.2483 71.4413 36.2483C74.2867 36.2483 76.6063 34.0939 76.6063 31.17C76.6063 28.2268 74.2867 26.0917 71.4413 26.0917ZM82.7089 34.2479C81.1498 34.2479 79.8047 32.9782 79.8047 31.17C79.8047 29.3425 81.1498 28.0921 82.7089 28.0921C84.268 28.0921 85.613 29.3425 85.613 31.17C85.613 32.9782 84.268 34.2479 82.7089 34.2479ZM82.7089 26.0917C79.8629 26.0917 77.5439 28.2268 77.5439 31.17C77.5439 34.0939 79.8629 36.2483 82.7089 36.2483C85.5544 36.2483 87.8739 34.0939 87.8739 31.17C87.8739 28.2268 85.5544 26.0917 82.7089 26.0917Z" fill="#D9E1EB"/>
<g id="g4076">
<g id="g4078">
<path id="path4098" d="M12.99 38.7935L12.9001 38.7086C12.5481 38.3409 12.3402 37.7701 12.3402 37.0308V37.2048V10.7976C12.3402 10.7952 12.3402 10.7934 12.3402 10.7915C12.3402 10.7938 12.3402 10.7957 12.3402 10.7981V10.9725C12.3402 10.1721 12.5825 9.56908 12.9886 9.20753L27.9783 24.001L12.99 38.7935ZM12.3402 10.7901C12.3402 10.7243 12.342 10.6604 12.3454 10.5975C12.342 10.6599 12.3402 10.7243 12.3402 10.7901ZM12.3454 10.5946C12.3454 10.5938 12.3454 10.5928 12.3458 10.5919C12.3454 10.5928 12.3454 10.5938 12.3454 10.5946ZM12.3458 10.5863C12.3458 10.5858 12.3458 10.5853 12.3458 10.5848C12.3458 10.5853 12.3458 10.5858 12.3458 10.5863Z" fill="url(#paint0_linear_1250_1835)"/>
</g>
</g>
<g id="g4100">
<g id="g4102">
<path id="path4118" d="M32.9742 29.1086L33.0881 29.0448L39.0078 25.7252C39.5722 25.4086 39.9483 25.0247 40.136 24.6185C39.9488 25.0247 39.5726 25.4091 39.0078 25.7257L33.0881 29.0452L32.9742 29.1086ZM32.9756 28.9337L27.9783 24.0009L32.9751 19.069L39.0078 22.4514C39.7739 22.8811 40.204 23.4347 40.2758 24.0005C40.2758 24.0009 40.2758 24.0019 40.2758 24.0027C40.204 24.5671 39.7739 25.1213 39.0078 25.5508L32.9756 28.9337Z" fill="url(#paint1_linear_1250_1835)"/>
</g>
</g>
<g id="g4120">
<g id="g4122">
<path id="path4134" d="M14.0586 39.3568C13.6398 39.3568 13.2745 39.2225 12.9895 38.9688L12.99 38.9683C13.275 39.222 13.6408 39.3568 14.0595 39.3568C14.0958 39.3568 14.1327 39.3559 14.1701 39.3541C14.1322 39.3559 14.0949 39.3568 14.0586 39.3568ZM14.0591 39.1819C13.6403 39.1824 13.275 39.0476 12.99 38.7938V38.7935L27.9784 24.001L32.9756 28.9338L15.4144 38.7813C14.9286 39.0532 14.4682 39.1819 14.0591 39.1819ZM12.9858 38.9655C12.9593 38.9418 12.9333 38.9166 12.9078 38.8904L12.9858 38.9655Z" fill="url(#paint2_linear_1250_1835)"/>
</g>
</g>
<g id="g4136">
<g id="g4138">
<path id="path4156" d="M27.9783 24.001L12.9886 9.20753C13.2735 8.95428 13.6384 8.81995 14.0566 8.81995C14.4669 8.81995 14.9276 8.94915 15.4144 9.22151L32.9751 19.069L27.9783 24.001ZM33.0881 18.9576L15.4144 9.04717C14.9276 8.7747 14.4669 8.6455 14.0566 8.6455C14.0547 8.6455 14.0534 8.6455 14.0514 8.6455C14.0538 8.6455 14.0557 8.6455 14.0586 8.6455C14.4679 8.6455 14.9281 8.77422 15.4144 9.0467L33.0881 18.9576Z" fill="url(#paint3_linear_1250_1835)"/>
</g>
</g>
<path id="path4158" d="M14.1701 39.3541C14.5505 39.3326 14.9716 39.2034 15.4145 38.9558L32.9742 29.1088L15.4145 38.9558C14.972 39.2039 14.5505 39.3326 14.1701 39.3541ZM12.9896 38.9688L12.9858 38.9656C12.9871 38.9665 12.9886 38.9679 12.9896 38.9688ZM12.9078 38.8905L12.9001 38.8831V38.8826C12.9031 38.8854 12.9053 38.8881 12.9078 38.8905Z" fill="black"/>
<g id="g4160">
<g id="g4162">
<path id="path4178" d="M32.9742 29.1086L33.0882 29.0448L32.9742 29.1086Z" fill="url(#paint4_linear_1250_1835)"/>
</g>
</g>
<g id="g4180">
<g id="g4182">
<path id="path4194" d="M14.0595 39.3568C13.6408 39.3568 13.275 39.222 12.99 38.9683L12.9896 38.9688C12.9886 38.9678 12.9871 38.9665 12.9858 38.9655L12.9078 38.8904C12.9053 38.888 12.9031 38.8853 12.9001 38.8825L12.99 38.7938C13.275 39.0476 13.6403 39.1824 14.0591 39.1819C14.4682 39.1819 14.9286 39.0532 15.4145 38.7813L32.9756 28.9338L33.0882 29.0448L32.9742 29.1087L15.4145 38.9557C14.9716 39.2034 14.5505 39.3326 14.1701 39.3541C14.1327 39.3559 14.0958 39.3568 14.0595 39.3568Z" fill="url(#paint5_linear_1250_1835)"/>
</g>
</g>
<path id="path4196" d="M12.9001 38.8832C12.5481 38.5155 12.3402 37.9447 12.3402 37.2054V37.205C12.3402 37.9447 12.5481 38.5151 12.9001 38.8827V38.8832Z" fill="black"/>
<g id="g4198">
<g id="g4200">
<path id="path4220" d="M12.9001 38.8827C12.5481 38.515 12.3402 37.9447 12.3402 37.205V37.031C12.3402 37.7702 12.5481 38.3411 12.9001 38.7087L12.99 38.7936L12.9001 38.8827Z" fill="url(#paint6_linear_1250_1835)"/>
</g>
</g>
<g id="g4222">
<g id="g4224">
<path id="path4236" d="M12.9001 38.8827L12.99 38.7936V38.794L12.9001 38.8827Z" fill="url(#paint7_linear_1250_1835)"/>
</g>
</g>
<path id="path4238" d="M40.136 24.6185C40.229 24.417 40.2758 24.2099 40.2758 24.0028C40.2758 24.0024 40.2758 24.0019 40.2758 24.0019C40.2758 24.2095 40.229 24.4165 40.136 24.6185Z" fill="black"/>
<g id="g4240">
<g id="g4242">
<path id="path4258" d="M33.0881 29.0448L32.9756 28.9338L39.0078 25.5508C39.7739 25.1213 40.204 24.5672 40.2758 24.0028C40.2758 24.2099 40.229 24.417 40.136 24.6185C39.9483 25.0247 39.5722 25.4086 39.0078 25.7253L33.0881 29.0448Z" fill="url(#paint8_linear_1250_1835)"/>
</g>
</g>
<path id="path4260" d="M40.2758 24.001V24.0005C40.2754 23.3759 39.8524 22.7514 39.0078 22.2775L33.0881 18.958H33.0876L33.0881 18.9576L39.0078 22.277C39.8534 22.7509 40.2768 23.3764 40.2758 24.001Z" fill="#404040"/>
<g id="g4262">
<g id="g4264">
<path id="path4280" d="M40.2759 24.0005C40.204 23.4348 39.7739 22.8811 39.0078 22.4515L32.9752 19.069L33.0877 18.958H33.0882L39.0078 22.2775C39.8524 22.7514 40.2754 23.3759 40.2759 24.0005Z" fill="url(#paint9_linear_1250_1835)"/>
</g>
</g>
<path id="path4282" d="M12.3402 10.7916C12.3402 10.7911 12.3402 10.7907 12.3402 10.7902C12.3402 10.7907 12.3402 10.7911 12.3402 10.7916ZM12.3454 10.5976C12.3454 10.5966 12.3454 10.5957 12.3454 10.5947C12.3454 10.5957 12.3454 10.5966 12.3454 10.5976ZM12.3458 10.592C12.3458 10.5901 12.3458 10.5883 12.3458 10.5864C12.3458 10.5883 12.3458 10.5901 12.3458 10.592ZM12.3458 10.5849C12.4158 9.35831 13.0916 8.64978 14.0477 8.6456C13.6332 8.64798 13.2722 8.78231 12.9895 9.03366V9.03318L12.9861 9.03652C12.9564 9.06303 12.9281 9.09109 12.9001 9.11998C12.5825 9.45157 12.3822 9.94828 12.3458 10.5849Z" fill="#404040"/>
<g id="g4284">
<g id="g4286">
<path id="path4306" d="M12.3402 10.9727V10.7982C12.3402 10.7958 12.3402 10.7939 12.3402 10.7916C12.3402 10.7912 12.3402 10.7907 12.3402 10.7902C12.3402 10.7244 12.342 10.6601 12.3454 10.5976C12.3454 10.5967 12.3454 10.5957 12.3454 10.5947C12.3454 10.5939 12.3454 10.593 12.3458 10.592C12.3458 10.5901 12.3458 10.5883 12.3458 10.5864C12.3458 10.5859 12.3458 10.5854 12.3458 10.585C12.3822 9.9483 12.5825 9.45158 12.9001 9.12L12.9886 9.20764C12.5825 9.56919 12.3402 10.1722 12.3402 10.9727ZM12.9861 9.03653L12.9895 9.03319C12.9886 9.03462 12.9871 9.03558 12.9861 9.03653Z" fill="url(#paint10_linear_1250_1835)"/>
</g>
</g>
<g id="g4310">
<g id="g4312">
<path id="path4330" d="M32.9752 19.0691L15.4145 9.22156C14.9276 8.9492 14.4669 8.82001 14.0566 8.82001C13.6384 8.82001 13.2735 8.95434 12.9886 9.20759L12.9001 9.11995C12.9281 9.09105 12.9564 9.06299 12.9862 9.03648C12.9871 9.03553 12.9886 9.03458 12.9896 9.03362C13.2722 8.78228 13.6332 8.64795 14.0477 8.64556C14.0487 8.64556 14.05 8.64556 14.0514 8.64556C14.0534 8.64556 14.0547 8.64556 14.0566 8.64556C14.4669 8.64556 14.9276 8.77475 15.4145 9.04723L33.0882 18.9577L33.0877 18.958L32.9752 19.0691Z" fill="url(#paint11_linear_1250_1835)"/>
</g>
</g>
</g>
</g>
<defs>
<linearGradient id="paint0_linear_1250_1835" x1="26.6492" y1="10.519" x2="6.61212" y2="30.8216" gradientUnits="userSpaceOnUse">
<stop stop-color="#00A0FF"/>
<stop offset="0.00657445" stop-color="#00A1FF"/>
<stop offset="0.2601" stop-color="#00BEFF"/>
<stop offset="0.5122" stop-color="#00D2FF"/>
<stop offset="0.7604" stop-color="#00DFFF"/>
<stop offset="1" stop-color="#00E3FF"/>
</linearGradient>
<linearGradient id="paint1_linear_1250_1835" x1="41.2092" y1="24.0017" x2="11.9346" y2="24.0017" gradientUnits="userSpaceOnUse">
<stop stop-color="#FFE000"/>
<stop offset="0.4087" stop-color="#FFBD00"/>
<stop offset="0.7754" stop-color="#FFA500"/>
<stop offset="1" stop-color="#FF9C00"/>
</linearGradient>
<linearGradient id="paint2_linear_1250_1835" x1="30.3117" y1="26.7416" x2="3.1399" y2="54.2733" gradientUnits="userSpaceOnUse">
<stop stop-color="#FF3A44"/>
<stop offset="1" stop-color="#C31162"/>
</linearGradient>
<linearGradient id="paint3_linear_1250_1835" x1="9.10339" y1="0.329796" x2="21.2367" y2="12.6238" gradientUnits="userSpaceOnUse">
<stop stop-color="#32A071"/>
<stop offset="0.0685" stop-color="#2DA771"/>
<stop offset="0.4762" stop-color="#15CF74"/>
<stop offset="0.8009" stop-color="#06E775"/>
<stop offset="1" stop-color="#00F076"/>
</linearGradient>
<linearGradient id="paint4_linear_1250_1835" x1="41.2094" y1="24.0019" x2="11.9343" y2="24.0019" gradientUnits="userSpaceOnUse">
<stop stop-color="#CCB300"/>
<stop offset="0.4087" stop-color="#CC9700"/>
<stop offset="0.7754" stop-color="#CC8400"/>
<stop offset="1" stop-color="#CC7D00"/>
</linearGradient>
<linearGradient id="paint5_linear_1250_1835" x1="30.3117" y1="26.7416" x2="3.13992" y2="54.2733" gradientUnits="userSpaceOnUse">
<stop stop-color="#CC2E36"/>
<stop offset="1" stop-color="#9C0E4E"/>
</linearGradient>
<linearGradient id="paint6_linear_1250_1835" x1="26.6492" y1="10.5192" x2="6.61217" y2="30.8218" gradientUnits="userSpaceOnUse">
<stop stop-color="#008DE0"/>
<stop offset="0.00657445" stop-color="#008DE0"/>
<stop offset="0.2601" stop-color="#00A7E0"/>
<stop offset="0.5122" stop-color="#00B8E0"/>
<stop offset="0.7604" stop-color="#00C4E0"/>
<stop offset="1" stop-color="#00C7E0"/>
</linearGradient>
<linearGradient id="paint7_linear_1250_1835" x1="30.3122" y1="26.7419" x2="3.14069" y2="54.2744" gradientUnits="userSpaceOnUse">
<stop stop-color="#E0333C"/>
<stop offset="1" stop-color="#AB0F56"/>
</linearGradient>
<linearGradient id="paint8_linear_1250_1835" x1="41.2092" y1="24.0017" x2="11.9345" y2="24.0017" gradientUnits="userSpaceOnUse">
<stop stop-color="#E0C500"/>
<stop offset="0.4087" stop-color="#E0A600"/>
<stop offset="0.7754" stop-color="#E09100"/>
<stop offset="1" stop-color="#E08900"/>
</linearGradient>
<linearGradient id="paint9_linear_1250_1835" x1="41.2093" y1="24.0017" x2="11.9346" y2="24.0017" gradientUnits="userSpaceOnUse">
<stop stop-color="#FFE840"/>
<stop offset="0.4087" stop-color="#FFCE40"/>
<stop offset="0.7754" stop-color="#FFBC40"/>
<stop offset="1" stop-color="#FFB540"/>
</linearGradient>
<linearGradient id="paint10_linear_1250_1835" x1="26.6492" y1="10.5192" x2="6.61214" y2="30.8217" gradientUnits="userSpaceOnUse">
<stop stop-color="#40B8FF"/>
<stop offset="0.00657445" stop-color="#40B9FF"/>
<stop offset="0.2601" stop-color="#40CEFF"/>
<stop offset="0.5122" stop-color="#40DDFF"/>
<stop offset="0.7604" stop-color="#40E7FF"/>
<stop offset="1" stop-color="#40EAFF"/>
</linearGradient>
<linearGradient id="paint11_linear_1250_1835" x1="9.1034" y1="0.329851" x2="21.2367" y2="12.6239" gradientUnits="userSpaceOnUse">
<stop stop-color="#65B895"/>
<stop offset="0.0685" stop-color="#62BD95"/>
<stop offset="0.4762" stop-color="#50DB97"/>
<stop offset="0.8009" stop-color="#44ED98"/>
<stop offset="1" stop-color="#40F498"/>
</linearGradient>
</defs>
</svg>
